<svg width="15" height="20" viewBox="0 0 15 20" fill="none" xmlns="http://www.w3.org/2000/svg">
<path fill-rule="evenodd" clip-rule="evenodd" d="M13.0219 8.67336H11.7974V6.06234C11.7974 3.53173 9.71451 1.44928 7.18472 1.44928C4.65452 1.44928 2.57166 3.53173 2.57166 6.06234V8.67336H1.34717V6.06234C1.34717 2.83622 3.96105 0.224792 7.18472 0.224792C10.4084 0.224792 13.0219 2.83622 13.0219 6.06234V8.67336Z" fill="#767F7D"/>
<path fill-rule="evenodd" clip-rule="evenodd" d="M1.95959 9.32744C1.59347 9.32744 1.30776 9.61275 1.30776 9.97928V17.8172C1.30776 18.1842 1.59347 18.4695 1.95959 18.4695H12.4098C12.7759 18.4695 13.0612 18.1842 13.0612 17.8172V9.97928C13.0612 9.61275 12.7759 9.32744 12.4098 9.32744H1.95959ZM12.4098 19.7752H1.95959C0.899592 19.7752 0 18.8776 0 17.8172V9.97928C0 8.91928 0.899592 8.02173 1.95959 8.02173H12.4098C13.4694 8.02173 14.369 8.91928 14.369 9.97928V17.8172C14.369 18.9193 13.4694 19.7752 12.4098 19.7752Z" fill="#767F7D"/>
<path fill-rule="evenodd" clip-rule="evenodd" d="M8.49023 11.9389C8.49023 12.674 7.92003 13.2446 7.18452 13.2446C6.44942 13.2446 5.87921 12.674 5.87921 11.9389C5.87921 11.2038 6.44942 10.6332 7.18452 10.6332C7.92003 10.6332 8.49023 11.2454 8.49023 11.9389Z" fill="#767F7D"/>
<path fill-rule="evenodd" clip-rule="evenodd" d="M7.51165 11.9389H6.85736L6.20593 15.8581H8.16348L7.51165 11.9389Z" fill="#767F7D"/>
</svg>
